<svg width="16" height="16" viewBox="0 0 16 16" fill="none" xmlns="http://www.w3.org/2000/svg">
<g clip-path="url(#clip0_18946_135616)">
<path d="M8.66659 5.21967C9.23325 5.01967 9.68659 4.56634 9.88659 3.99967H11.9999L9.99992 8.66634C9.99992 9.77301 11.0466 10.6663 12.3333 10.6663C13.6199 10.6663 14.6666 9.77301 14.6666 8.66634L12.6666 3.99967H13.9999V2.66634H9.88659C9.61325 1.88634 8.87325 1.33301 7.99992 1.33301C7.12659 1.33301 6.38659 1.88634 6.11325 2.66634H1.99992V3.99967H3.33325L1.33325 8.66634C1.33325 9.77301 2.37992 10.6663 3.66659 10.6663C4.95325 10.6663 5.99992 9.77301 5.99992 8.66634L3.99992 3.99967H6.11325C6.31325 4.56634 6.76659 5.01967 7.33325 5.21967V12.6663H1.33325V13.9997H14.6666V12.6663H8.66659V5.21967ZM13.5799 8.66634H11.0866L12.3333 5.75968L13.5799 8.66634ZM4.91325 8.66634H2.41992L3.66659 5.75968L4.91325 8.66634ZM7.99992 3.99967C7.63325 3.99967 7.33325 3.69967 7.33325 3.33301C7.33325 2.96634 7.63325 2.66634 7.99992 2.66634C8.36659 2.66634 8.66659 2.96634 8.66659 3.33301C8.66659 3.69967 8.36659 3.99967 7.99992 3.99967Z" fill="#262626"/>
</g>
<defs>
<clipPath id="clip0_18946_135616">
<rect width="16" height="16" fill="white"/>
</clipPath>
</defs>
</svg>
