<svg width="16" height="16" viewBox="0 0 16 16" fill="none" xmlns="http://www.w3.org/2000/svg">
  <path d="M7.99992 3.99967C7.82311 3.99967 7.65354 4.06991 7.52851 4.19494C7.40349 4.31996 7.33325 4.48953 7.33325 4.66634V11.333C7.33325 11.5098 7.40349 11.6794 7.52851 11.8044C7.65354 11.9294 7.82311 11.9997 7.99992 11.9997C8.17673 11.9997 8.3463 11.9294 8.47132 11.8044C8.59635 11.6794 8.66658 11.5098 8.66658 11.333V4.66634C8.66658 4.48953 8.59635 4.31996 8.47132 4.19494C8.3463 4.06991 8.17673 3.99967 7.99992 3.99967ZM4.66658 7.99967C4.48977 7.99967 4.3202 8.06991 4.19518 8.19494C4.07016 8.31996 3.99992 8.48953 3.99992 8.66634V11.333C3.99992 11.5098 4.07016 11.6794 4.19518 11.8044C4.3202 11.9294 4.48977 11.9997 4.66658 11.9997C4.8434 11.9997 5.01297 11.9294 5.13799 11.8044C5.26301 11.6794 5.33325 11.5098 5.33325 11.333V8.66634C5.33325 8.48953 5.26301 8.31996 5.13799 8.19494C5.01297 8.06991 4.8434 7.99967 4.66658 7.99967ZM11.3333 6.66634C11.1564 6.66634 10.9869 6.73658 10.8618 6.8616C10.7368 6.98663 10.6666 7.1562 10.6666 7.33301V11.333C10.6666 11.5098 10.7368 11.6794 10.8618 11.8044C10.9869 11.9294 11.1564 11.9997 11.3333 11.9997C11.5101 11.9997 11.6796 11.9294 11.8047 11.8044C11.9297 11.6794 11.9999 11.5098 11.9999 11.333V7.33301C11.9999 7.1562 11.9297 6.98663 11.8047 6.8616C11.6796 6.73658 11.5101 6.66634 11.3333 6.66634ZM12.6666 1.33301H3.33325C2.80282 1.33301 2.29411 1.54372 1.91904 1.91879C1.54397 2.29387 1.33325 2.80257 1.33325 3.33301V12.6663C1.33325 13.1968 1.54397 13.7055 1.91904 14.0806C2.29411 14.4556 2.80282 14.6663 3.33325 14.6663H12.6666C13.197 14.6663 13.7057 14.4556 14.0808 14.0806C14.4559 13.7055 14.6666 13.1968 14.6666 12.6663V3.33301C14.6666 2.80257 14.4559 2.29387 14.0808 1.91879C13.7057 1.54372 13.197 1.33301 12.6666 1.33301ZM13.3333 12.6663C13.3333 12.8432 13.263 13.0127 13.138 13.1377C13.013 13.2628 12.8434 13.333 12.6666 13.333H3.33325C3.15644 13.333 2.98687 13.2628 2.86185 13.1377C2.73682 13.0127 2.66659 12.8432 2.66659 12.6663V3.33301C2.66659 3.1562 2.73682 2.98663 2.86185 2.8616C2.98687 2.73658 3.15644 2.66634 3.33325 2.66634H12.6666C12.8434 2.66634 13.013 2.73658 13.138 2.8616C13.263 2.98663 13.3333 3.1562 13.3333 3.33301V12.6663Z" fill="#262626"/>
</svg>
