<svg width="32" height="32" viewBox="0 0 32 32" fill="none" xmlns="http://www.w3.org/2000/svg">
<g id="material-symbols:balance">
<path id="Vector" d="M2.66699 28.0013V25.3346H14.667V10.4346C14.0892 10.2346 13.5892 9.92353 13.167 9.5013C12.7448 9.07908 12.4337 8.57908 12.2337 8.0013H8.00033L12.0003 17.3346C12.0003 18.4457 11.5448 19.3902 10.6337 20.168C9.72255 20.9457 8.62255 21.3346 7.33366 21.3346C6.04477 21.3346 4.94477 20.9457 4.03366 20.168C3.12255 19.3902 2.66699 18.4457 2.66699 17.3346L6.66699 8.0013H4.00033V5.33464H12.2337C12.5003 4.55686 12.9781 3.91819 13.667 3.41864C14.3559 2.91908 15.1337 2.66886 16.0003 2.66797C16.867 2.66708 17.6448 2.9173 18.3337 3.41864C19.0225 3.91997 19.5003 4.55864 19.767 5.33464H28.0003V8.0013H25.3337L29.3337 17.3346C29.3337 18.4457 28.8781 19.3902 27.967 20.168C27.0559 20.9457 25.9559 21.3346 24.667 21.3346C23.3781 21.3346 22.2781 20.9457 21.367 20.168C20.4559 19.3902 20.0003 18.4457 20.0003 17.3346L24.0003 8.0013H19.767C19.567 8.57908 19.2559 9.07908 18.8337 9.5013C18.4114 9.92353 17.9114 10.2346 17.3337 10.4346V25.3346H29.3337V28.0013H2.66699ZM22.167 17.3346H27.167L24.667 11.5346L22.167 17.3346ZM4.83366 17.3346H9.83366L7.33366 11.5346L4.83366 17.3346ZM16.0003 8.0013C16.3781 8.0013 16.695 7.8733 16.951 7.6173C17.207 7.3613 17.3345 7.04486 17.3337 6.66797C17.3328 6.29108 17.2048 5.97464 16.9497 5.71864C16.6945 5.46264 16.3781 5.33464 16.0003 5.33464C15.6225 5.33464 15.3061 5.46264 15.051 5.71864C14.7959 5.97464 14.6679 6.29108 14.667 6.66797C14.6661 7.04486 14.7941 7.36175 15.051 7.61864C15.3079 7.87553 15.6243 8.00308 16.0003 8.0013Z" fill="#2196F3"/>
</g>
</svg>
