<svg width="32" height="32" viewBox="0 0 32 32" fill="none" xmlns="http://www.w3.org/2000/svg">
<path d="M13.2839 10.4707H0.470588C0.21069 10.4707 0 10.6814 0 10.9413V20.353C0 20.6129 0.21069 20.8236 0.470589 20.8236H13.3244C13.4604 20.8236 13.5898 20.7648 13.6791 20.6623L16.1045 17.8802C16.2739 17.6859 16.2555 17.3914 16.0631 17.2198L13.106 14.5816C12.8983 14.3963 12.896 14.072 13.1012 13.8838L14.475 12.6231C14.6447 12.4673 14.6767 12.2116 14.5507 12.0188L13.6778 10.6838C13.5908 10.5508 13.4427 10.4707 13.2839 10.4707Z" fill="#2196F3"/>
<path d="M17.6905 10.4707H31.5294C31.7893 10.4707 32 10.6814 32 10.9413V20.353C32 20.6129 31.7893 20.8236 31.5294 20.8236H18.2653C17.8614 20.8236 17.6452 20.3482 17.9106 20.0438L19.4063 18.3281C19.5678 18.143 19.5596 17.8648 19.3876 17.6894L16.3406 14.5827C16.1544 14.3928 16.1624 14.0863 16.3584 13.9065L17.757 12.6231C17.9268 12.4673 17.9588 12.2116 17.8327 12.0188L17.2966 11.1988C17.0919 10.8858 17.3165 10.4707 17.6905 10.4707Z" fill="#2196F3"/>
<rect x="15.5898" y="24.5879" width="1.64103" height="4.70587" rx="0.820513" fill="#2196F3"/>
<rect width="1.76581" height="4.41454" rx="0.882907" transform="matrix(0.657136 -0.753772 0.657136 0.753772 18.0513 24.0352)" fill="#2196F3"/>
<rect width="1.76581" height="4.41454" rx="0.882907" transform="matrix(0.657136 0.753772 -0.657136 0.753772 13.5676 22.7051)" fill="#2196F3"/>
<rect x="17.1895" y="6.70508" width="1.64103" height="4.70587" rx="0.820513" transform="rotate(-180 17.1895 6.70508)" fill="#2196F3"/>
<rect width="1.76581" height="4.41454" rx="0.882907" transform="matrix(-0.657136 0.753772 -0.657136 -0.753772 14.728 7.25781)" fill="#2196F3"/>
<rect width="1.76581" height="4.41454" rx="0.882907" transform="matrix(-0.657136 -0.753772 0.657136 -0.753772 19.2117 8.58789)" fill="#2196F3"/>
</svg>
