<svg width="32" height="32" viewBox="0 0 32 32" fill="none" xmlns="http://www.w3.org/2000/svg">
<g id="Icon shapping">
<path id="icon/action/help_outline_24px" fill-rule="evenodd" clip-rule="evenodd" d="M2.6665 15.9993C2.6665 8.63935 8.63984 2.66602 15.9998 2.66602C23.3598 2.66602 29.3332 8.63935 29.3332 15.9993C29.3332 23.3594 23.3598 29.3327 15.9998 29.3327C8.63984 29.3327 2.6665 23.3594 2.6665 15.9993ZM5.33317 15.9993C5.33317 21.8793 10.1198 26.666 15.9998 26.666C21.8798 26.666 26.6665 21.8793 26.6665 15.9993C26.6665 10.1193 21.8798 5.33268 15.9998 5.33268C10.1198 5.33268 5.33317 10.1193 5.33317 15.9993ZM17.3332 21.3327V23.9993H14.6665V21.3327H17.3332ZM10.907 11.7727C11.6403 9.346 14.067 7.65267 16.8136 8.05267C19.1336 8.39934 20.9603 10.3593 21.2803 12.6793C21.5844 14.8307 20.3946 15.8688 19.2462 16.8707C19.0352 17.0548 18.8256 17.2377 18.627 17.426C18.467 17.5727 18.3203 17.7193 18.187 17.8793C18.1803 17.886 18.1736 17.896 18.167 17.906C18.1603 17.916 18.1536 17.926 18.147 17.9327C18.0136 18.0927 17.8803 18.266 17.7736 18.4527C17.7603 18.4727 17.7503 18.4927 17.7403 18.5127C17.7303 18.5327 17.7203 18.5527 17.707 18.5727C17.4803 18.9727 17.3336 19.4393 17.3336 19.9993H14.667C14.667 19.3327 14.7736 18.786 14.9336 18.3327C14.9395 18.3151 14.9428 18.3002 14.9457 18.2866C14.9495 18.2693 14.9528 18.2543 14.9603 18.2393C14.967 18.2193 14.977 18.2027 14.987 18.186C14.997 18.1693 15.007 18.1527 15.0136 18.1327C15.107 17.8927 15.227 17.666 15.347 17.466C15.3536 17.4527 15.3603 17.4427 15.367 17.4327C15.3736 17.4227 15.3803 17.4127 15.387 17.3993C15.387 17.3927 15.3903 17.3893 15.3936 17.386C15.397 17.3827 15.4003 17.3793 15.4003 17.3727C15.8544 16.6888 16.4634 16.2204 17.033 15.7824C17.8514 15.1529 18.5883 14.5862 18.667 13.5327C18.7736 12.2393 17.8403 10.9993 16.5736 10.7327C15.2003 10.4393 13.9336 11.2527 13.507 12.4393C13.3203 12.946 12.8803 13.3327 12.3336 13.3327H12.067C11.2536 13.3327 10.667 12.546 10.907 11.7727Z" fill="#2196F3"/>
</g>
</svg>
